<svg width="134" height="33" viewBox="0 0 134 33" fill="none" xmlns="http://www.w3.org/2000/svg">
<path d="M26 10.5H4C3.73478 10.5 3.48043 10.6054 3.29289 10.7929C3.10536 10.9804 3 11.2348 3 11.5V17.5C3.00299 19.2025 3.36708 20.885 4.06822 22.4364C4.76937 23.9878 5.79163 25.3728 7.0675 26.5H4C3.73478 26.5 3.48043 26.6054 3.29289 26.7929C3.10536 26.9804 3 27.2348 3 27.5C3 27.7652 3.10536 28.0196 3.29289 28.2071C3.48043 28.3946 3.73478 28.5 4 28.5H26C26.2652 28.5 26.5196 28.3946 26.7071 28.2071C26.8946 28.0196 27 27.7652 27 27.5C27 27.2348 26.8946 26.9804 26.7071 26.7929C26.5196 26.6054 26.2652 26.5 26 26.5H22.9325C24.464 25.1426 25.6254 23.4182 26.3075 21.4888C27.5776 21.4105 28.7701 20.8509 29.642 19.924C30.5139 18.997 30.9995 17.7725 31 16.5V15.5C31 14.1739 30.4732 12.9021 29.5355 11.9645C28.5979 11.0268 27.3261 10.5 26 10.5ZM29 16.5C28.9996 17.147 28.79 17.7765 28.4025 18.2946C28.015 18.8127 27.4705 19.1917 26.85 19.375C26.9491 18.7549 26.9993 18.128 27 17.5V12.6725C27.5848 12.8792 28.0911 13.2621 28.4492 13.7685C28.8074 14.2749 28.9998 14.8798 29 15.5V16.5ZM14 7.5V3.5C14 3.23478 14.1054 2.98043 14.2929 2.79289C14.4804 2.60536 14.7348 2.5 15 2.5C15.2652 2.5 15.5196 2.60536 15.7071 2.79289C15.8946 2.98043 16 3.23478 16 3.5V7.5C16 7.76522 15.8946 8.01957 15.7071 8.20711C15.5196 8.39464 15.2652 8.5 15 8.5C14.7348 8.5 14.4804 8.39464 14.2929 8.20711C14.1054 8.01957 14 7.76522 14 7.5ZM18 7.5V3.5C18 3.23478 18.1054 2.98043 18.2929 2.79289C18.4804 2.60536 18.7348 2.5 19 2.5C19.2652 2.5 19.5196 2.60536 19.7071 2.79289C19.8946 2.98043 20 3.23478 20 3.5V7.5C20 7.76522 19.8946 8.01957 19.7071 8.20711C19.5196 8.39464 19.2652 8.5 19 8.5C18.7348 8.5 18.4804 8.39464 18.2929 8.20711C18.1054 8.01957 18 7.76522 18 7.5ZM10 7.5V3.5C10 3.23478 10.1054 2.98043 10.2929 2.79289C10.4804 2.60536 10.7348 2.5 11 2.5C11.2652 2.5 11.5196 2.60536 11.7071 2.79289C11.8946 2.98043 12 3.23478 12 3.5V7.5C12 7.76522 11.8946 8.01957 11.7071 8.20711C11.5196 8.39464 11.2652 8.5 11 8.5C10.7348 8.5 10.4804 8.39464 10.2929 8.20711C10.1054 8.01957 10 7.76522 10 7.5Z" fill="#8E6447"/>
<path d="M63.3477 17.377C63.0417 17.8717 62.6283 18.3633 62.1074 18.8516C61.5866 19.3333 60.9909 19.7695 60.3203 20.1602C59.6562 20.5443 58.9303 20.8535 58.1426 21.0879C57.3548 21.3288 56.541 21.4492 55.7012 21.4492C55.0436 21.4492 54.3861 21.3906 53.7285 21.2734C53.0775 21.1562 52.4492 20.9772 51.8438 20.7363C51.2448 20.4954 50.6849 20.1927 50.1641 19.8281C49.6497 19.457 49.2005 19.0208 48.8164 18.5195C48.4323 18.0182 48.1296 17.4486 47.9082 16.8105C47.6934 16.1725 47.5859 15.4629 47.5859 14.6816C47.5859 13.9199 47.6966 13.1973 47.918 12.5137C48.1458 11.8301 48.4616 11.1986 48.8652 10.6191C49.2689 10.0332 49.7474 9.50586 50.3008 9.03711C50.8542 8.56836 51.4596 8.17122 52.1172 7.8457C52.7747 7.51367 53.4681 7.25977 54.1973 7.08398C54.9264 6.9082 55.6719 6.82031 56.4336 6.82031C57.2734 6.82031 58.0612 6.92122 58.7969 7.12305C59.5391 7.31836 60.1868 7.59831 60.7402 7.96289C61.2936 8.32096 61.7298 8.75391 62.0488 9.26172C62.3743 9.76302 62.5371 10.3229 62.5371 10.9414C62.5371 11.5143 62.4036 12.0612 62.1367 12.582C61.8698 13.0964 61.502 13.5488 61.0332 13.9395C60.571 14.3301 60.0273 14.6393 59.4023 14.8672C58.7839 15.0951 58.123 15.209 57.4199 15.209C56.8535 15.209 56.3522 15.1406 55.916 15.0039C55.4798 14.8607 55.1152 14.6654 54.8223 14.418C54.5293 14.1706 54.3079 13.8809 54.1582 13.5488C54.0085 13.2168 53.9336 12.8587 53.9336 12.4746C53.9336 12.1556 53.9824 11.8659 54.0801 11.6055C54.1842 11.3385 54.2949 11.1107 54.4121 10.9219C54.5358 10.7331 54.6497 10.5866 54.7539 10.4824C54.8646 10.3717 54.9264 10.3099 54.9395 10.2969C54.972 10.2643 55.0078 10.2448 55.0469 10.2383C55.0924 10.2253 55.1348 10.2188 55.1738 10.2188C55.278 10.2188 55.3659 10.2513 55.4375 10.3164C55.5091 10.3815 55.5449 10.4661 55.5449 10.5703C55.5449 10.6875 55.5026 10.7852 55.418 10.8633C55.4049 10.8698 55.3594 10.9154 55.2812 11C55.2031 11.0781 55.1185 11.1888 55.0273 11.332C54.9362 11.4688 54.8516 11.6348 54.7734 11.8301C54.7018 12.0254 54.666 12.2402 54.666 12.4746C54.666 12.8457 54.7474 13.1582 54.9102 13.4121C55.0794 13.666 55.2975 13.8743 55.5645 14.0371C55.8314 14.1934 56.1276 14.3073 56.4531 14.3789C56.7786 14.444 57.1042 14.4766 57.4297 14.4766C58.0352 14.4766 58.6016 14.3789 59.1289 14.1836C59.6628 13.9883 60.1283 13.7279 60.5254 13.4023C60.9225 13.0768 61.235 12.7025 61.4629 12.2793C61.6908 11.8561 61.8047 11.4134 61.8047 10.9512C61.8047 10.4434 61.6615 9.98112 61.375 9.56445C61.0885 9.14128 60.7012 8.7832 60.2129 8.49023C59.7246 8.19076 59.1517 7.95964 58.4941 7.79688C57.8431 7.63411 57.1465 7.55273 56.4043 7.55273C55.8444 7.55273 55.2552 7.62109 54.6367 7.75781C54.0247 7.88802 53.4193 8.08659 52.8203 8.35352C52.2214 8.62044 51.6484 8.95247 51.1016 9.34961C50.5612 9.74674 50.0859 10.2122 49.6758 10.7461C49.2656 11.2734 48.9368 11.8659 48.6895 12.5234C48.4486 13.181 48.3281 13.9004 48.3281 14.6816C48.3281 15.3913 48.4258 16.0326 48.6211 16.6055C48.8229 17.1784 49.0996 17.6895 49.4512 18.1387C49.8027 18.5814 50.2129 18.9655 50.6816 19.291C51.1569 19.6165 51.6647 19.8867 52.2051 20.1016C52.752 20.3099 53.3216 20.4661 53.9141 20.5703C54.5065 20.668 55.0957 20.7168 55.6816 20.7168C56.4629 20.7168 57.2148 20.6094 57.9375 20.3945C58.6602 20.1732 59.3275 19.8867 59.9395 19.5352C60.5579 19.1771 61.1048 18.7767 61.5801 18.334C62.0553 17.8913 62.4329 17.4453 62.7129 16.9961C62.7454 16.9375 62.791 16.8952 62.8496 16.8691C62.9082 16.8366 62.9701 16.8203 63.0352 16.8203C63.1458 16.8203 63.2337 16.8594 63.2988 16.9375C63.3639 17.0091 63.3965 17.0905 63.3965 17.1816C63.3965 17.2142 63.3932 17.2467 63.3867 17.2793C63.3802 17.3118 63.3672 17.3444 63.3477 17.377ZM68.8652 19.9258C68.7025 19.9258 68.5592 19.9128 68.4355 19.8867C68.3379 20.082 68.2207 20.2643 68.084 20.4336C67.9473 20.5964 67.7878 20.7396 67.6055 20.8633C67.4297 20.987 67.2311 21.0846 67.0098 21.1562C66.7884 21.2279 66.5475 21.2637 66.2871 21.2637C65.9811 21.2637 65.7012 21.2083 65.4473 21.0977C65.1934 20.9935 64.972 20.847 64.7832 20.6582C64.5944 20.4629 64.4479 20.2318 64.3438 19.9648C64.2396 19.6914 64.1875 19.3919 64.1875 19.0664C64.1875 18.6497 64.2624 18.2884 64.4121 17.9824C64.5618 17.6699 64.7344 17.4128 64.9297 17.2109C65.125 17.0026 65.3203 16.8496 65.5156 16.752C65.7109 16.6478 65.8574 16.5957 65.9551 16.5957C66.0658 16.5957 66.1471 16.625 66.1992 16.6836C66.2578 16.7422 66.2871 16.8203 66.2871 16.918C66.2871 17.0286 66.2513 17.1133 66.1797 17.1719C66.1146 17.224 66.0299 17.276 65.9258 17.3281C65.8216 17.3802 65.7109 17.4551 65.5938 17.5527C65.4766 17.6439 65.3659 17.7611 65.2617 17.9043C65.1641 18.0475 65.0827 18.2168 65.0176 18.4121C64.9525 18.6074 64.9199 18.8255 64.9199 19.0664C64.9199 19.2812 64.9525 19.4831 65.0176 19.6719C65.0827 19.8542 65.1771 20.0137 65.3008 20.1504C65.4245 20.2806 65.571 20.3848 65.7402 20.4629C65.9095 20.5345 66.0983 20.5703 66.3066 20.5703C66.6777 20.5703 66.9837 20.4857 67.2246 20.3164C67.472 20.1406 67.6608 19.9193 67.791 19.6523C67.4069 19.4505 67.0911 19.1641 66.8438 18.793C66.5964 18.4219 66.4727 18.0052 66.4727 17.543C66.4727 17.1719 66.5605 16.8691 66.7363 16.6348C66.9186 16.4004 67.1562 16.2832 67.4492 16.2832C67.625 16.2832 67.791 16.3255 67.9473 16.4102C68.1035 16.4948 68.2402 16.6283 68.3574 16.8105C68.4811 16.9928 68.5788 17.2272 68.6504 17.5137C68.722 17.8001 68.7578 18.1419 68.7578 18.5391C68.7578 18.7474 68.7318 18.9655 68.6797 19.1934C68.7188 19.1999 68.7578 19.2031 68.7969 19.2031C68.8359 19.2031 68.8783 19.2031 68.9238 19.2031C69.1452 19.2031 69.3438 19.1771 69.5195 19.125C69.6953 19.0729 69.8548 18.9948 69.998 18.8906C70.1413 18.7865 70.2682 18.653 70.3789 18.4902C70.4961 18.3275 70.6068 18.1387 70.7109 17.9238C70.7305 17.8848 70.7728 17.849 70.8379 17.8164C70.903 17.7773 70.9681 17.7578 71.0332 17.7578C71.1178 17.7578 71.196 17.7936 71.2676 17.8652C71.3457 17.9303 71.3848 18.0182 71.3848 18.1289C71.3848 18.181 71.3717 18.2396 71.3457 18.3047C71.3197 18.3633 71.2936 18.4186 71.2676 18.4707C71.1569 18.666 71.0267 18.8548 70.877 19.0371C70.7337 19.2129 70.5612 19.3691 70.3594 19.5059C70.1641 19.6361 69.9427 19.7402 69.6953 19.8184C69.4479 19.8965 69.1712 19.9323 68.8652 19.9258ZM67.1953 17.4648C67.1953 17.5885 67.2116 17.7188 67.2441 17.8555C67.2767 17.9922 67.3255 18.1289 67.3906 18.2656C67.4622 18.3958 67.5469 18.5228 67.6445 18.6465C67.7487 18.7637 67.8691 18.8646 68.0059 18.9492C68.0254 18.8125 68.0352 18.679 68.0352 18.5488C68.0352 18.373 68.0221 18.194 67.9961 18.0117C67.9701 17.8294 67.931 17.6634 67.8789 17.5137C67.8333 17.3574 67.7747 17.2337 67.7031 17.1426C67.6315 17.0449 67.5469 16.9961 67.4492 16.9961C67.4102 16.9961 67.3581 17.0254 67.293 17.084C67.2279 17.1426 67.1953 17.2695 67.1953 17.4648ZM71.4531 21.4785C71.9349 21.2637 72.3711 21.0163 72.7617 20.7363C73.1589 20.4564 73.5104 20.1634 73.8164 19.8574C74.1289 19.5449 74.3926 19.2292 74.6074 18.9102C74.8288 18.5846 75.0046 18.2754 75.1348 17.9824C75.1934 17.8392 75.304 17.7676 75.4668 17.7676C75.5775 17.7676 75.6654 17.8066 75.7305 17.8848C75.8021 17.9564 75.8379 18.0378 75.8379 18.1289C75.8379 18.181 75.8281 18.2298 75.8086 18.2754C75.6654 18.5944 75.4831 18.9264 75.2617 19.2715C75.0404 19.61 74.7702 19.9453 74.4512 20.2773C74.1387 20.6029 73.7708 20.9186 73.3477 21.2246C72.9245 21.5306 72.4395 21.8105 71.8926 22.0645C72.2441 22.429 72.5501 22.8327 72.8105 23.2754C73.071 23.7246 73.2858 24.1901 73.4551 24.6719C73.6309 25.1536 73.7611 25.6387 73.8457 26.127C73.9368 26.6217 73.9824 27.0938 73.9824 27.543C73.9824 27.9531 73.9434 28.3372 73.8652 28.6953C73.7936 29.0599 73.6829 29.3757 73.5332 29.6426C73.39 29.9095 73.2142 30.1178 73.0059 30.2676C72.7975 30.4238 72.5599 30.502 72.293 30.502C71.9023 30.502 71.5996 30.3555 71.3848 30.0625C71.1699 29.776 71.0104 29.3757 70.9062 28.8613C70.8086 28.3535 70.75 27.7513 70.7305 27.0547C70.7174 26.3646 70.7109 25.6126 70.7109 24.7988C70.7109 24.3952 70.7109 23.9232 70.7109 23.3828C70.7109 22.849 70.7109 22.2728 70.7109 21.6543C70.7174 21.0423 70.7207 20.401 70.7207 19.7305C70.7272 19.0534 70.7337 18.3763 70.7402 17.6992C70.7467 17.0221 70.7533 16.3581 70.7598 15.707C70.7663 15.0495 70.776 14.4277 70.7891 13.8418C70.8086 12.722 70.8477 11.7227 70.9062 10.8438C70.9648 9.96484 71.0592 9.22266 71.1895 8.61719C71.3197 8.01172 71.4954 7.55273 71.7168 7.24023C71.9447 6.92122 72.2311 6.76172 72.5762 6.76172C72.8496 6.76172 73.0807 6.83984 73.2695 6.99609C73.4583 7.14583 73.6113 7.35091 73.7285 7.61133C73.8457 7.86523 73.9303 8.16471 73.9824 8.50977C74.0345 8.85482 74.0605 9.21615 74.0605 9.59375C74.0605 10.388 73.9922 11.1562 73.8555 11.8984C73.7188 12.6406 73.5332 13.36 73.2988 14.0566C73.0645 14.7533 72.7878 15.4336 72.4688 16.0977C72.1562 16.7617 71.821 17.416 71.4629 18.0605C71.4629 18.3275 71.4629 18.6172 71.4629 18.9297C71.4629 19.2357 71.4629 19.5449 71.4629 19.8574C71.4629 20.1634 71.4596 20.4596 71.4531 20.7461C71.4531 21.026 71.4531 21.2702 71.4531 21.4785ZM71.4824 16.5566C71.7493 16.0553 71.9935 15.528 72.2148 14.9746C72.4427 14.4147 72.638 13.8385 72.8008 13.2461C72.9635 12.6536 73.0905 12.0482 73.1816 11.4297C73.2728 10.8112 73.3184 10.1895 73.3184 9.56445C73.3184 9.25195 73.3021 8.96875 73.2695 8.71484C73.2435 8.46094 73.1979 8.24609 73.1328 8.07031C73.0742 7.88802 72.9961 7.74805 72.8984 7.65039C72.8073 7.54622 72.6999 7.49414 72.5762 7.49414C72.446 7.49414 72.332 7.57227 72.2344 7.72852C72.1367 7.88477 72.0521 8.0931 71.9805 8.35352C71.9089 8.61393 71.847 8.91341 71.7949 9.25195C71.7493 9.59049 71.7103 9.94531 71.6777 10.3164C71.6452 10.681 71.6191 11.0488 71.5996 11.4199C71.5801 11.7845 71.5638 12.1296 71.5508 12.4551C71.5443 12.7741 71.5378 13.0573 71.5312 13.3047C71.5312 13.5521 71.5312 13.7376 71.5312 13.8613C71.5247 14.1217 71.5182 14.3529 71.5117 14.5547C71.5117 14.7565 71.5085 14.9551 71.502 15.1504C71.4954 15.3457 71.4889 15.554 71.4824 15.7754C71.4824 15.9967 71.4824 16.2572 71.4824 16.5566ZM71.4531 22.6797C71.4531 23.0898 71.4499 23.4707 71.4434 23.8223C71.4434 24.1803 71.4434 24.5059 71.4434 24.7988C71.4434 25.4043 71.4466 26.0033 71.4531 26.5957C71.4596 27.1882 71.4889 27.7188 71.541 28.1875C71.5996 28.6628 71.6842 29.0436 71.7949 29.3301C71.9121 29.623 72.0781 29.7695 72.293 29.7695C72.4883 29.7695 72.6478 29.6816 72.7715 29.5059C72.8952 29.3301 72.9896 29.1217 73.0547 28.8809C73.1263 28.64 73.1751 28.3926 73.2012 28.1387C73.2272 27.8913 73.2402 27.6895 73.2402 27.5332C73.2402 27.1361 73.2012 26.7194 73.123 26.2832C73.0514 25.847 72.9375 25.4141 72.7812 24.9844C72.6315 24.5612 72.446 24.151 72.2246 23.7539C72.0033 23.3568 71.7461 22.9987 71.4531 22.6797ZM75.9062 21.4785C76.388 21.2637 76.8242 21.0163 77.2148 20.7363C77.612 20.4564 77.9635 20.1634 78.2695 19.8574C78.582 19.5449 78.8457 19.2292 79.0605 18.9102C79.2819 18.5846 79.4577 18.2754 79.5879 17.9824C79.6465 17.8392 79.7572 17.7676 79.9199 17.7676C80.0306 17.7676 80.1185 17.8066 80.1836 17.8848C80.2552 17.9564 80.291 18.0378 80.291 18.1289C80.291 18.181 80.2812 18.2298 80.2617 18.2754C80.1185 18.5944 79.9362 18.9264 79.7148 19.2715C79.4935 19.61 79.2233 19.9453 78.9043 20.2773C78.5918 20.6029 78.224 20.9186 77.8008 21.2246C77.3776 21.5306 76.8926 21.8105 76.3457 22.0645C76.6973 22.429 77.0033 22.8327 77.2637 23.2754C77.5241 23.7246 77.7389 24.1901 77.9082 24.6719C78.084 25.1536 78.2142 25.6387 78.2988 26.127C78.39 26.6217 78.4355 27.0938 78.4355 27.543C78.4355 27.9531 78.3965 28.3372 78.3184 28.6953C78.2467 29.0599 78.1361 29.3757 77.9863 29.6426C77.8431 29.9095 77.6673 30.1178 77.459 30.2676C77.2507 30.4238 77.013 30.502 76.7461 30.502C76.3555 30.502 76.0527 30.3555 75.8379 30.0625C75.623 29.776 75.4635 29.3757 75.3594 28.8613C75.2617 28.3535 75.2031 27.7513 75.1836 27.0547C75.1706 26.3646 75.1641 25.6126 75.1641 24.7988C75.1641 24.3952 75.1641 23.9232 75.1641 23.3828C75.1641 22.849 75.1641 22.2728 75.1641 21.6543C75.1706 21.0423 75.1738 20.401 75.1738 19.7305C75.1803 19.0534 75.1868 18.3763 75.1934 17.6992C75.1999 17.0221 75.2064 16.3581 75.2129 15.707C75.2194 15.0495 75.2292 14.4277 75.2422 13.8418C75.2617 12.722 75.3008 11.7227 75.3594 10.8438C75.418 9.96484 75.5124 9.22266 75.6426 8.61719C75.7728 8.01172 75.9486 7.55273 76.1699 7.24023C76.3978 6.92122 76.6842 6.76172 77.0293 6.76172C77.3027 6.76172 77.5339 6.83984 77.7227 6.99609C77.9115 7.14583 78.0645 7.35091 78.1816 7.61133C78.2988 7.86523 78.3835 8.16471 78.4355 8.50977C78.4876 8.85482 78.5137 9.21615 78.5137 9.59375C78.5137 10.388 78.4453 11.1562 78.3086 11.8984C78.1719 12.6406 77.9863 13.36 77.752 14.0566C77.5176 14.7533 77.2409 15.4336 76.9219 16.0977C76.6094 16.7617 76.2741 17.416 75.916 18.0605C75.916 18.3275 75.916 18.6172 75.916 18.9297C75.916 19.2357 75.916 19.5449 75.916 19.8574C75.916 20.1634 75.9128 20.4596 75.9062 20.7461C75.9062 21.026 75.9062 21.2702 75.9062 21.4785ZM75.9355 16.5566C76.2025 16.0553 76.4466 15.528 76.668 14.9746C76.8958 14.4147 77.0911 13.8385 77.2539 13.2461C77.4167 12.6536 77.5436 12.0482 77.6348 11.4297C77.7259 10.8112 77.7715 10.1895 77.7715 9.56445C77.7715 9.25195 77.7552 8.96875 77.7227 8.71484C77.6966 8.46094 77.651 8.24609 77.5859 8.07031C77.5273 7.88802 77.4492 7.74805 77.3516 7.65039C77.2604 7.54622 77.153 7.49414 77.0293 7.49414C76.8991 7.49414 76.7852 7.57227 76.6875 7.72852C76.5898 7.88477 76.5052 8.0931 76.4336 8.35352C76.362 8.61393 76.3001 8.91341 76.248 9.25195C76.2025 9.59049 76.1634 9.94531 76.1309 10.3164C76.0983 10.681 76.0723 11.0488 76.0527 11.4199C76.0332 11.7845 76.0169 12.1296 76.0039 12.4551C75.9974 12.7741 75.9909 13.0573 75.9844 13.3047C75.9844 13.5521 75.9844 13.7376 75.9844 13.8613C75.9779 14.1217 75.9714 14.3529 75.9648 14.5547C75.9648 14.7565 75.9616 14.9551 75.9551 15.1504C75.9486 15.3457 75.9421 15.554 75.9355 15.7754C75.9355 15.9967 75.9355 16.2572 75.9355 16.5566ZM75.9062 22.6797C75.9062 23.0898 75.903 23.4707 75.8965 23.8223C75.8965 24.1803 75.8965 24.5059 75.8965 24.7988C75.8965 25.4043 75.8997 26.0033 75.9062 26.5957C75.9128 27.1882 75.9421 27.7188 75.9941 28.1875C76.0527 28.6628 76.1374 29.0436 76.248 29.3301C76.3652 29.623 76.5312 29.7695 76.7461 29.7695C76.9414 29.7695 77.1009 29.6816 77.2246 29.5059C77.3483 29.3301 77.4427 29.1217 77.5078 28.8809C77.5794 28.64 77.6283 28.3926 77.6543 28.1387C77.6803 27.8913 77.6934 27.6895 77.6934 27.5332C77.6934 27.1361 77.6543 26.7194 77.5762 26.2832C77.5046 25.847 77.3906 25.4141 77.2344 24.9844C77.0846 24.5612 76.8991 24.151 76.6777 23.7539C76.4564 23.3568 76.1992 22.9987 75.9062 22.6797ZM80.7695 19.9258C80.9062 20.1146 81.082 20.2676 81.2969 20.3848C81.5117 20.4954 81.7754 20.5508 82.0879 20.5508C82.4069 20.5508 82.6966 20.4759 82.957 20.3262C83.2174 20.1699 83.4551 19.9681 83.6699 19.7207C83.8848 19.4733 84.0768 19.1966 84.2461 18.8906C84.4154 18.5846 84.5684 18.2786 84.7051 17.9727C84.7376 17.901 84.7832 17.849 84.8418 17.8164C84.9004 17.7773 84.9655 17.7578 85.0371 17.7578C85.1478 17.7578 85.2357 17.7969 85.3008 17.875C85.3724 17.9531 85.4082 18.0378 85.4082 18.1289C85.4082 18.1615 85.4049 18.1908 85.3984 18.2168C85.3919 18.2363 85.3822 18.2591 85.3691 18.2852C84.9199 19.2747 84.4284 20.0202 83.8945 20.5215C83.3672 21.0228 82.7682 21.2799 82.0977 21.293C81.668 21.293 81.2969 21.2083 80.9844 21.0391C80.6719 20.8763 80.4147 20.6647 80.2129 20.4043C80.0111 20.1374 79.8613 19.8379 79.7637 19.5059C79.666 19.1738 79.6172 18.8418 79.6172 18.5098C79.6172 18.1777 79.6562 17.8717 79.7344 17.5918C79.819 17.3118 79.9362 17.0677 80.0859 16.8594C80.2422 16.651 80.4245 16.4883 80.6328 16.3711C80.8477 16.2539 81.082 16.1953 81.3359 16.1953C81.4857 16.1953 81.6322 16.2279 81.7754 16.293C81.9251 16.3516 82.0586 16.4395 82.1758 16.5566C82.293 16.6673 82.3874 16.804 82.459 16.9668C82.5306 17.1296 82.5664 17.3151 82.5664 17.5234C82.5664 17.7904 82.5208 18.041 82.4297 18.2754C82.3385 18.5098 82.2116 18.7279 82.0488 18.9297C81.8926 19.1315 81.7038 19.3171 81.4824 19.4863C81.2611 19.6556 81.0234 19.8021 80.7695 19.9258ZM80.4766 19.291C80.6784 19.2064 80.8607 19.099 81.0234 18.9688C81.1927 18.8385 81.3359 18.6953 81.4531 18.5391C81.5703 18.3828 81.6615 18.2201 81.7266 18.0508C81.7917 17.875 81.8242 17.6992 81.8242 17.5234C81.8242 17.3281 81.7754 17.1816 81.6777 17.084C81.5801 16.9798 81.4661 16.9277 81.3359 16.9277C81.1602 16.9277 81.0104 16.9766 80.8867 17.0742C80.763 17.1719 80.6621 17.2988 80.584 17.4551C80.5059 17.6113 80.4473 17.7871 80.4082 17.9824C80.3757 18.1712 80.3594 18.36 80.3594 18.5488C80.3594 18.666 80.3691 18.7897 80.3887 18.9199C80.4147 19.0501 80.444 19.1738 80.4766 19.291ZM85.8867 19.9258C86.0234 20.1146 86.1992 20.2676 86.4141 20.3848C86.6289 20.4954 86.8926 20.5508 87.2051 20.5508C87.5241 20.5508 87.8138 20.4759 88.0742 20.3262C88.3346 20.1699 88.5723 19.9681 88.7871 19.7207C89.002 19.4733 89.194 19.1966 89.3633 18.8906C89.5326 18.5846 89.6855 18.2786 89.8223 17.9727C89.8548 17.901 89.9004 17.849 89.959 17.8164C90.0176 17.7773 90.0827 17.7578 90.1543 17.7578C90.265 17.7578 90.3529 17.7969 90.418 17.875C90.4896 17.9531 90.5254 18.0378 90.5254 18.1289C90.5254 18.1615 90.5221 18.1908 90.5156 18.2168C90.5091 18.2363 90.4993 18.2591 90.4863 18.2852C90.0371 19.2747 89.5456 20.0202 89.0117 20.5215C88.4844 21.0228 87.8854 21.2799 87.2148 21.293C86.7852 21.293 86.4141 21.2083 86.1016 21.0391C85.7891 20.8763 85.5319 20.6647 85.3301 20.4043C85.1283 20.1374 84.9785 19.8379 84.8809 19.5059C84.7832 19.1738 84.7344 18.8418 84.7344 18.5098C84.7344 18.1777 84.7734 17.8717 84.8516 17.5918C84.9362 17.3118 85.0534 17.0677 85.2031 16.8594C85.3594 16.651 85.5417 16.4883 85.75 16.3711C85.9648 16.2539 86.1992 16.1953 86.4531 16.1953C86.6029 16.1953 86.7493 16.2279 86.8926 16.293C87.0423 16.3516 87.1758 16.4395 87.293 16.5566C87.4102 16.6673 87.5046 16.804 87.5762 16.9668C87.6478 17.1296 87.6836 17.3151 87.6836 17.5234C87.6836 17.7904 87.638 18.041 87.5469 18.2754C87.4557 18.5098 87.3288 18.7279 87.166 18.9297C87.0098 19.1315 86.821 19.3171 86.5996 19.4863C86.3783 19.6556 86.1406 19.8021 85.8867 19.9258ZM85.5938 19.291C85.7956 19.2064 85.9779 19.099 86.1406 18.9688C86.3099 18.8385 86.4531 18.6953 86.5703 18.5391C86.6875 18.3828 86.7786 18.2201 86.8438 18.0508C86.9089 17.875 86.9414 17.6992 86.9414 17.5234C86.9414 17.3281 86.8926 17.1816 86.7949 17.084C86.6973 16.9798 86.5833 16.9277 86.4531 16.9277C86.2773 16.9277 86.1276 16.9766 86.0039 17.0742C85.8802 17.1719 85.7793 17.2988 85.7012 17.4551C85.623 17.6113 85.5645 17.7871 85.5254 17.9824C85.4928 18.1712 85.4766 18.36 85.4766 18.5488C85.4766 18.666 85.4863 18.7897 85.5059 18.9199C85.5319 19.0501 85.5612 19.1738 85.5938 19.291ZM111.57 10.7461C111.551 10.8372 111.508 10.9089 111.443 10.9609C111.378 11.013 111.307 11.0391 111.229 11.0391C111.111 11.0391 111.017 11.0033 110.945 10.9316C110.874 10.8535 110.838 10.7656 110.838 10.668C110.838 10.5703 110.848 10.4759 110.867 10.3848C110.887 10.2871 110.896 10.1927 110.896 10.1016C110.896 9.6263 110.75 9.19987 110.457 8.82227C110.164 8.44466 109.747 8.12891 109.207 7.875C108.673 7.61458 108.022 7.41602 107.254 7.2793C106.486 7.14258 105.63 7.07422 104.686 7.07422C103.963 7.07422 103.234 7.12305 102.498 7.2207C101.769 7.31185 101.066 7.44857 100.389 7.63086C99.7181 7.80664 99.0898 8.03125 98.5039 8.30469C97.918 8.57161 97.4069 8.88411 96.9707 9.24219C96.541 9.59375 96.2025 9.98763 95.9551 10.4238C95.7077 10.8535 95.584 11.3255 95.584 11.8398C95.584 12.237 95.6686 12.5885 95.8379 12.8945C96.0137 13.194 96.2513 13.4577 96.5508 13.6855C96.8503 13.9069 97.2018 14.099 97.6055 14.2617C98.0156 14.418 98.4583 14.5514 98.9336 14.6621C99.4089 14.7663 99.9036 14.8542 100.418 14.9258C100.932 14.9909 101.45 15.0462 101.971 15.0918L103.475 15.2188C104.223 15.2839 104.894 15.3522 105.486 15.4238C106.079 15.4954 106.6 15.5866 107.049 15.6973C107.798 15.8861 108.351 16.1562 108.709 16.5078C109.067 16.8594 109.246 17.3281 109.246 17.9141C109.246 18.4805 109.09 18.9785 108.777 19.4082C108.465 19.8379 108.038 20.1992 107.498 20.4922C106.958 20.7852 106.326 21.0065 105.604 21.1562C104.881 21.306 104.106 21.3809 103.279 21.3809C102.381 21.3809 101.59 21.319 100.906 21.1953C100.229 21.0781 99.6595 20.9479 99.1973 20.8047C98.7415 20.6549 98.3932 20.5182 98.1523 20.3945C97.9115 20.2708 97.7812 20.2025 97.7617 20.1895C97.6445 20.1243 97.5859 20.0202 97.5859 19.877C97.5859 19.7663 97.625 19.6784 97.7031 19.6133C97.7812 19.5417 97.8659 19.5059 97.957 19.5059C98.0286 19.5059 98.0938 19.5254 98.1523 19.5645C98.1589 19.5645 98.2695 19.623 98.4844 19.7402C98.7057 19.8509 99.0312 19.9746 99.4609 20.1113C99.8971 20.248 100.434 20.3717 101.072 20.4824C101.71 20.5931 102.452 20.6484 103.299 20.6484C104.139 20.6484 104.881 20.5801 105.525 20.4434C106.17 20.3066 106.71 20.1178 107.146 19.877C107.589 19.6296 107.921 19.3431 108.143 19.0176C108.37 18.6855 108.484 18.3275 108.484 17.9434C108.484 17.7155 108.442 17.5202 108.357 17.3574C108.279 17.1882 108.169 17.0449 108.025 16.9277C107.882 16.804 107.71 16.6999 107.508 16.6152C107.312 16.5306 107.098 16.459 106.863 16.4004C106.616 16.3353 106.349 16.2799 106.062 16.2344C105.783 16.1888 105.493 16.1497 105.193 16.1172C104.894 16.0846 104.591 16.0553 104.285 16.0293C103.986 16.0033 103.689 15.9772 103.396 15.9512L101.893 15.8242C100.708 15.7266 99.6725 15.5768 98.7871 15.375C97.9082 15.1667 97.1758 14.903 96.5898 14.584C96.0039 14.2585 95.5645 13.8711 95.2715 13.4219C94.9785 12.9727 94.832 12.4486 94.832 11.8496C94.832 11.2376 94.9688 10.6777 95.2422 10.1699C95.5221 9.6556 95.8997 9.19336 96.375 8.7832C96.8568 8.37305 97.4167 8.01823 98.0547 7.71875C98.6992 7.41276 99.3861 7.15885 100.115 6.95703C100.844 6.75521 101.6 6.60547 102.381 6.50781C103.162 6.40365 103.93 6.35156 104.686 6.35156C105.63 6.35156 106.45 6.41016 107.146 6.52734C107.85 6.63802 108.449 6.78451 108.943 6.9668C109.445 7.14258 109.855 7.3444 110.174 7.57227C110.493 7.80013 110.75 8.02474 110.945 8.24609C111.408 8.78646 111.639 9.40169 111.639 10.0918C111.639 10.3197 111.616 10.5378 111.57 10.7461ZM112.732 20.1699C112.837 19.9486 112.957 19.7109 113.094 19.457C113.23 19.1966 113.377 18.9329 113.533 18.666C113.689 18.3926 113.855 18.1224 114.031 17.8555C114.207 17.5885 114.389 17.3379 114.578 17.1035C114.767 16.8757 114.956 16.7129 115.145 16.6152C115.34 16.5111 115.522 16.459 115.691 16.459C115.861 16.459 116.007 16.4948 116.131 16.5664C116.261 16.6315 116.365 16.7227 116.443 16.8398C116.528 16.957 116.59 17.0938 116.629 17.25C116.674 17.4062 116.697 17.5755 116.697 17.7578C116.697 17.9076 116.681 18.1094 116.648 18.3633C116.622 18.6107 116.609 18.8711 116.609 19.1445C116.609 19.3008 116.616 19.457 116.629 19.6133C116.648 19.763 116.678 19.8997 116.717 20.0234C116.762 20.1406 116.827 20.2383 116.912 20.3164C116.997 20.388 117.107 20.4238 117.244 20.4238C117.4 20.4238 117.557 20.3815 117.713 20.2969C117.869 20.2057 118.022 20.0885 118.172 19.9453C118.322 19.7956 118.465 19.6328 118.602 19.457C118.738 19.2747 118.862 19.0957 118.973 18.9199C119.083 18.7376 119.181 18.5651 119.266 18.4023C119.35 18.2331 119.419 18.0931 119.471 17.9824C119.536 17.8327 119.65 17.7578 119.812 17.7578C119.923 17.7578 120.011 17.7969 120.076 17.875C120.141 17.9531 120.174 18.0378 120.174 18.1289C120.174 18.181 120.164 18.2298 120.145 18.2754C120.118 18.3275 120.066 18.4349 119.988 18.5977C119.917 18.7604 119.816 18.9492 119.686 19.1641C119.562 19.3789 119.415 19.6035 119.246 19.8379C119.077 20.0723 118.888 20.2904 118.68 20.4922C118.478 20.6875 118.257 20.8503 118.016 20.9805C117.781 21.1042 117.534 21.166 117.273 21.166C116.974 21.166 116.733 21.1042 116.551 20.9805C116.368 20.8503 116.225 20.6875 116.121 20.4922C116.023 20.2969 115.955 20.0788 115.916 19.8379C115.883 19.597 115.867 19.3626 115.867 19.1348C115.867 19.0176 115.87 18.8939 115.877 18.7637C115.89 18.627 115.903 18.4935 115.916 18.3633C115.929 18.2331 115.939 18.1126 115.945 18.002C115.958 17.8848 115.965 17.7871 115.965 17.709C115.965 17.5072 115.936 17.3704 115.877 17.2988C115.825 17.2272 115.763 17.1914 115.691 17.1914C115.587 17.1914 115.467 17.2533 115.33 17.377C115.2 17.4941 115.06 17.6504 114.91 17.8457C114.767 18.041 114.62 18.2624 114.471 18.5098C114.327 18.7507 114.188 18.9915 114.051 19.2324C113.914 19.4733 113.79 19.7044 113.68 19.9258C113.569 20.1406 113.478 20.3197 113.406 20.4629C113.27 20.7363 113.13 20.9186 112.986 21.0098C112.85 21.1074 112.726 21.1562 112.615 21.1562C112.413 21.1562 112.257 21.0781 112.146 20.9219C112.042 20.7591 111.99 20.5638 111.99 20.3359V19.7207C111.99 18.4902 111.99 17.3184 111.99 16.2051C111.997 15.0853 112.013 14.0469 112.039 13.0898C112.072 12.1263 112.12 11.2572 112.186 10.4824C112.257 9.70117 112.361 9.03711 112.498 8.49023C112.635 7.93685 112.807 7.51042 113.016 7.21094C113.23 6.91146 113.497 6.76172 113.816 6.76172C114.09 6.76172 114.321 6.83659 114.51 6.98633C114.699 7.13607 114.852 7.34115 114.969 7.60156C115.086 7.85547 115.171 8.15495 115.223 8.5C115.275 8.83854 115.301 9.19661 115.301 9.57422C115.301 10.3424 115.229 11.0977 115.086 11.8398C114.949 12.5755 114.764 13.2949 114.529 13.998C114.295 14.7012 114.021 15.388 113.709 16.0586C113.396 16.7227 113.068 17.3704 112.723 18.002C112.723 18.1191 112.723 18.2591 112.723 18.4219C112.723 18.5846 112.723 18.7474 112.723 18.9102C112.723 19.0729 112.723 19.2259 112.723 19.3691C112.723 19.5124 112.723 19.6263 112.723 19.7109L112.732 20.1699ZM112.732 16.5664C113.006 15.9674 113.253 15.3848 113.475 14.8184C113.702 14.2454 113.895 13.6758 114.051 13.1094C114.214 12.543 114.34 11.9701 114.432 11.3906C114.523 10.8047 114.568 10.196 114.568 9.56445C114.568 9.46029 114.562 9.29427 114.549 9.06641C114.542 8.83854 114.513 8.60742 114.461 8.37305C114.415 8.13867 114.34 7.93359 114.236 7.75781C114.139 7.58203 113.999 7.49414 113.816 7.49414C113.673 7.49414 113.549 7.5918 113.445 7.78711C113.341 7.97591 113.25 8.23633 113.172 8.56836C113.094 8.89388 113.029 9.27474 112.977 9.71094C112.924 10.1471 112.882 10.6094 112.85 11.0977C112.817 11.5859 112.791 12.0872 112.771 12.6016C112.758 13.1159 112.749 13.6172 112.742 14.1055C112.736 14.5872 112.732 15.0397 112.732 15.4629C112.732 15.8861 112.732 16.2539 112.732 16.5664ZM123.982 19.9258C123.82 19.9258 123.676 19.9128 123.553 19.8867C123.455 20.082 123.338 20.2643 123.201 20.4336C123.064 20.5964 122.905 20.7396 122.723 20.8633C122.547 20.987 122.348 21.0846 122.127 21.1562C121.906 21.2279 121.665 21.2637 121.404 21.2637C121.098 21.2637 120.818 21.2083 120.564 21.0977C120.311 20.9935 120.089 20.847 119.9 20.6582C119.712 20.4629 119.565 20.2318 119.461 19.9648C119.357 19.6914 119.305 19.3919 119.305 19.0664C119.305 18.6497 119.38 18.2884 119.529 17.9824C119.679 17.6699 119.852 17.4128 120.047 17.2109C120.242 17.0026 120.438 16.8496 120.633 16.752C120.828 16.6478 120.975 16.5957 121.072 16.5957C121.183 16.5957 121.264 16.625 121.316 16.6836C121.375 16.7422 121.404 16.8203 121.404 16.918C121.404 17.0286 121.368 17.1133 121.297 17.1719C121.232 17.224 121.147 17.276 121.043 17.3281C120.939 17.3802 120.828 17.4551 120.711 17.5527C120.594 17.6439 120.483 17.7611 120.379 17.9043C120.281 18.0475 120.2 18.2168 120.135 18.4121C120.07 18.6074 120.037 18.8255 120.037 19.0664C120.037 19.2812 120.07 19.4831 120.135 19.6719C120.2 19.8542 120.294 20.0137 120.418 20.1504C120.542 20.2806 120.688 20.3848 120.857 20.4629C121.027 20.5345 121.215 20.5703 121.424 20.5703C121.795 20.5703 122.101 20.4857 122.342 20.3164C122.589 20.1406 122.778 19.9193 122.908 19.6523C122.524 19.4505 122.208 19.1641 121.961 18.793C121.714 18.4219 121.59 18.0052 121.59 17.543C121.59 17.1719 121.678 16.8691 121.854 16.6348C122.036 16.4004 122.273 16.2832 122.566 16.2832C122.742 16.2832 122.908 16.3255 123.064 16.4102C123.221 16.4948 123.357 16.6283 123.475 16.8105C123.598 16.9928 123.696 17.2272 123.768 17.5137C123.839 17.8001 123.875 18.1419 123.875 18.5391C123.875 18.7474 123.849 18.9655 123.797 19.1934C123.836 19.1999 123.875 19.2031 123.914 19.2031C123.953 19.2031 123.995 19.2031 124.041 19.2031C124.262 19.2031 124.461 19.1771 124.637 19.125C124.812 19.0729 124.972 18.9948 125.115 18.8906C125.258 18.7865 125.385 18.653 125.496 18.4902C125.613 18.3275 125.724 18.1387 125.828 17.9238C125.848 17.8848 125.89 17.849 125.955 17.8164C126.02 17.7773 126.085 17.7578 126.15 17.7578C126.235 17.7578 126.313 17.7936 126.385 17.8652C126.463 17.9303 126.502 18.0182 126.502 18.1289C126.502 18.181 126.489 18.2396 126.463 18.3047C126.437 18.3633 126.411 18.4186 126.385 18.4707C126.274 18.666 126.144 18.8548 125.994 19.0371C125.851 19.2129 125.678 19.3691 125.477 19.5059C125.281 19.6361 125.06 19.7402 124.812 19.8184C124.565 19.8965 124.288 19.9323 123.982 19.9258ZM122.312 17.4648C122.312 17.5885 122.329 17.7188 122.361 17.8555C122.394 17.9922 122.443 18.1289 122.508 18.2656C122.579 18.3958 122.664 18.5228 122.762 18.6465C122.866 18.7637 122.986 18.8646 123.123 18.9492C123.143 18.8125 123.152 18.679 123.152 18.5488C123.152 18.373 123.139 18.194 123.113 18.0117C123.087 17.8294 123.048 17.6634 122.996 17.5137C122.951 17.3574 122.892 17.2337 122.82 17.1426C122.749 17.0449 122.664 16.9961 122.566 16.9961C122.527 16.9961 122.475 17.0254 122.41 17.084C122.345 17.1426 122.312 17.2695 122.312 17.4648ZM130.818 18.2754C130.818 18.8743 130.711 19.3854 130.496 19.8086C130.281 20.2318 130.018 20.554 129.705 20.7754H129.744C130.128 20.7754 130.477 20.6908 130.789 20.5215C131.108 20.3457 131.395 20.1243 131.648 19.8574C131.902 19.584 132.13 19.2812 132.332 18.9492C132.534 18.6172 132.713 18.2949 132.869 17.9824C132.902 17.9108 132.947 17.8555 133.006 17.8164C133.071 17.7773 133.139 17.7578 133.211 17.7578C133.322 17.7578 133.41 17.7969 133.475 17.875C133.54 17.9531 133.572 18.0378 133.572 18.1289C133.572 18.181 133.562 18.2298 133.543 18.2754C133.374 18.653 133.172 19.0339 132.938 19.418C132.703 19.7956 132.43 20.1374 132.117 20.4434C131.805 20.7493 131.453 20.9967 131.062 21.1855C130.672 21.3809 130.239 21.4785 129.764 21.4785C129.419 21.4785 129.083 21.4232 128.758 21.3125C128.432 21.2083 128.146 21.0423 127.898 20.8145C127.807 20.7428 127.729 20.668 127.664 20.5898C127.599 20.5052 127.547 20.4271 127.508 20.3555C127.495 20.3424 127.488 20.3294 127.488 20.3164C127.449 20.2578 127.43 20.196 127.43 20.1309C127.43 20.0462 127.459 19.9681 127.518 19.8965C127.524 19.8835 127.531 19.877 127.537 19.877C127.544 19.8704 127.55 19.8639 127.557 19.8574C127.622 19.7988 127.693 19.7663 127.771 19.7598H127.801C127.833 19.7598 127.856 19.763 127.869 19.7695C127.876 19.7695 127.879 19.7728 127.879 19.7793C127.885 19.7793 127.892 19.7793 127.898 19.7793C127.918 19.7793 127.941 19.7858 127.967 19.7988C127.973 19.8053 127.98 19.8086 127.986 19.8086C128.045 19.8477 128.094 19.8965 128.133 19.9551C128.178 20.0332 128.23 20.1048 128.289 20.1699C128.341 20.222 128.403 20.2708 128.475 20.3164C128.546 20.3555 128.628 20.375 128.719 20.375C128.882 20.375 129.044 20.3262 129.207 20.2285C129.37 20.1309 129.516 19.9909 129.646 19.8086C129.777 19.6263 129.881 19.4049 129.959 19.1445C130.044 18.8841 130.086 18.5944 130.086 18.2754C130.086 18.041 130.06 17.8424 130.008 17.6797C129.962 17.5104 129.9 17.3737 129.822 17.2695C129.751 17.1654 129.673 17.0905 129.588 17.0449C129.503 16.9928 129.422 16.9668 129.344 16.9668C129.168 16.9668 128.989 17.0579 128.807 17.2402C128.631 17.4225 128.455 17.6536 128.279 17.9336C128.104 18.2135 127.928 18.5228 127.752 18.8613C127.583 19.1999 127.41 19.5286 127.234 19.8477C127.221 20.9023 127.202 21.9082 127.176 22.8652C127.156 23.8223 127.117 24.7109 127.059 25.5312C127.007 26.3516 126.932 27.0938 126.834 27.7578C126.736 28.4219 126.603 28.9883 126.434 29.457C126.264 29.9323 126.056 30.2969 125.809 30.5508C125.561 30.8047 125.258 30.9316 124.9 30.9316C124.79 30.9316 124.663 30.9089 124.52 30.8633C124.376 30.8177 124.243 30.7233 124.119 30.5801C123.995 30.4434 123.891 30.2448 123.807 29.9844C123.722 29.724 123.68 29.3757 123.68 28.9395C123.68 28.3861 123.748 27.7448 123.885 27.0156C124.021 26.2865 124.217 25.5117 124.471 24.6914C124.718 23.8776 125.014 23.041 125.359 22.1816C125.704 21.3223 126.085 20.4857 126.502 19.6719C126.502 19.444 126.502 19.2194 126.502 18.998C126.508 18.7767 126.512 18.5618 126.512 18.3535C126.427 18.4512 126.326 18.5 126.209 18.5C126.098 18.5 126.01 18.4609 125.945 18.3828C125.88 18.3047 125.848 18.2201 125.848 18.1289C125.848 18.0833 125.857 18.0345 125.877 17.9824C126.033 17.6243 126.154 17.2858 126.238 16.9668C126.323 16.6413 126.385 16.3581 126.424 16.1172C126.469 15.8698 126.495 15.6745 126.502 15.5312C126.508 15.388 126.512 15.3132 126.512 15.3066C126.512 15.209 126.548 15.1243 126.619 15.0527C126.691 14.9811 126.779 14.9453 126.883 14.9453C126.98 14.9453 127.065 14.9811 127.137 15.0527C127.208 15.1178 127.244 15.2025 127.244 15.3066V18.3047C127.394 18.0508 127.544 17.8001 127.693 17.5527C127.843 17.3053 127.999 17.084 128.162 16.8887C128.331 16.6934 128.51 16.5371 128.699 16.4199C128.895 16.2962 129.109 16.2344 129.344 16.2344C129.565 16.2344 129.767 16.2865 129.949 16.3906C130.132 16.4948 130.288 16.638 130.418 16.8203C130.548 17.0026 130.646 17.2207 130.711 17.4746C130.783 17.722 130.818 17.9889 130.818 18.2754ZM126.482 21.4102C126.163 22.1263 125.874 22.8457 125.613 23.5684C125.359 24.291 125.145 24.9876 124.969 25.6582C124.786 26.3288 124.646 26.957 124.549 27.543C124.451 28.1289 124.402 28.6432 124.402 29.0859C124.402 29.1966 124.409 29.3171 124.422 29.4473C124.435 29.5775 124.461 29.6979 124.5 29.8086C124.539 29.9193 124.594 30.0104 124.666 30.082C124.738 30.1602 124.832 30.1992 124.949 30.1992C125.164 30.1992 125.35 30.0625 125.506 29.7891C125.662 29.5221 125.792 29.1576 125.896 28.6953C126.007 28.2396 126.098 27.7122 126.17 27.1133C126.242 26.5208 126.297 25.8991 126.336 25.248C126.382 24.597 126.414 23.9395 126.434 23.2754C126.453 22.6178 126.469 21.9961 126.482 21.4102Z" fill="#8E6447"/>
</svg>
